<?xml version="1.0" encoding="UTF-8" standalone="no"?><svg xmlns="http://www.w3.org/2000/svg" version="1.1"><path d="m 116.57968,8.3686877 c -1.40016,0.0798 -3.01013,0.77149 -4,2.1562503 l -16.062505,18.468749 -0.0937,7.5625 -9.125,9.187496 c -2.351957,2.48881 1.47879,6.72765 4.0625,4.25 l 10.437505,-10.656246 0.21875,-6.4375 10.34375,8.9375 -5.6875,7.968746 c -1.17179,2.22491 -0.9512,4.22051 0.53125,5.6875 l 12.53125,12.21875 c 3.57573,2.97032 6.88859,-1.19946 3.90625,-4.0625 l -11.875,-11.25 8.78125,-12.562496 7.46875,7.687496 c 2.26393,2.69785 5.20671,1.5142 6.1875,-0.21875 l 7.1562,-13.343746 c 2.77209,-3.96839 -1.76321,-7.14497 -4.75,-3.25 l -6.125,10.46875 -19.6875,-19.46875 6.4375,-7.031249 8.90625,6.531249 c 3.25929,2.26615 5.76627,-2.2934 3.625,-4.156249 L 118.67343,8.8686877 c -0.50329,-0.37332 -1.25367,-0.54788 -2.09375,-0.5 z m -22.031255,0.40625 c -4.17407,0 -7.56251,3.3884303 -7.5625,7.5625003 0,4.174059 3.38843,7.562509 7.5625,7.562499 4.17406,0 7.562515,-3.38845 7.562505,-7.562499 0,-4.17407 -3.388445,-7.5625003 -7.562505,-7.5625003 z m 57.656255,27.8749993 0,2.71875 c 9.01675,1.30073 15.375,10.927566 15.375,17.968746 0,0.84906 -0.0317,1.65433 -0.15625,2.46875 l 3.40625,0 c 0.10281,-0.81564 0.15625,-1.6253 0.15625,-2.46875 0,-8.92699 -8.01169,-19.692766 -18.78125,-20.687496 z m -7.03125,8.312496 0,3.59375 c 6.23342,2.32616 10.71875,8.33382 10.71875,15.375 0,0.84906 -0.0629,1.65433 -0.1875,2.46875 l 3.40625,0 c 0.10281,-0.81564 0.15625,-1.6253 0.15625,-2.46875 0,-8.92698 -5.96103,-16.50912 -14.09375,-18.96875 z m -54.250005,15.9375 0,15.875 -7.312497,0 13.999997,14.8125 13.750005,-14.75 -7.28125,-0.0312 0,-15.90625 -13.156255,0 z m 67.875005,12.53125 0,155.187507 5.28125,0 0,-149.906257 43.65625,0 0,-5.28125 -48.9375,0 z m -100.093752,18.71875 -4.34375,3.53125 7.46875,9.937497 -9.34375,8.90626 2.09375,2.0625 11.15625,-10.34376 -7.21875,-9.968747 0.1875,-4.125 z m -14.6875,22.687507 c -0.5821,0.0159 -1.18085,0.12449 -1.84375,0.28125 -5.8433,1.19323 -9.235,5.60339 -10,13.4375 1.0444,5.56614 2.88015,10.71879 10.28125,12.625 5.7374,0.67941 10.8463,1.10587 14.25,-0.9375 6.4805,-3.82475 7.2066,-9.92887 4.9375,-16.28125 -2.1794,-4.37788 -6.03375,-5.96024 -9.96875,-5.65625 -1.8095,1.11958 -3.2217,2.74758 -4.25,4.84375 0.5402,-1.84338 0.4038,-3.32106 2.1875,-5.875 -1.2905,-1.37714 -3.07095,-2.50616 -5.59375,-2.4375 z m 90.093752,2.15625 c -19.02846,3.16618 -46.128055,6.75992 -70.406252,10.1875 l 2.15625,2.3125 6.03125,5.15625 c 0.8616,0.68512 0.7735,1.0551 0.125,1.59375 l -8.40625,8.125 12.375,-6.40625 c 2.7654,-1.85508 2.8833,-3.91053 0.375,-6.15625 l -5.46875,-2.96875 c 17.230697,-2.14915 35.037952,-4.2891 49.031252,-6.4375 l -63.875002,30.1875 c -21.5747,0.69142 -39.7836,-1.15401 -43.9375,-13.625 1.5479,-0.83966 4.30625,-1.66005 7.96875,-2.5 l -0.25,-2.3125 c -6.7927,1.40381 -11.0360496,2.69506 -11.4687496,3.78125 l 0.40625,75.21875 c 9.0176996,13.7235 26.6163996,16.96617 47.7499996,14.71875 l 0,-0.0625 79.250002,-37.25 -0.125,-15.34375 -79.218752,37.0625 0,12.90625 c -18.5234,3.36303 -36.97835,-1.36693 -44.34375,-12.03125 l -0.40625,-68.59375 c 9.5908,11.68222 27.086,12.00894 45.375,11.1875 l 77.156252,-36.5625 -0.0937,-2.1875 z m -103.906252,2.9375 -8.5625,6.90625 c -2.0331,2.09168 -1.6088,4.35171 -0.0625,6.71875 l 6.9375,7.03125 -3.96875,-8.5 c -0.7419,-0.94627 -0.85145,-1.82424 -0.28125,-2.84375 l 5.9375,-9.3125 z m 104.968752,4.53125 -78.750002,37.09375 0,15.90625 78.906252,-36.75 -0.15625,-16.25 z m -101.718752,14.78125 5.625,10.5625 c 0.8569,1.60725 3.14465,1.3971 4.53125,0.375 l 7.125,-6.21875 -7.78125,3.125 c -1.0223,0.45439 -1.31155,0.001 -1.78125,-0.28125 l -7.71875,-7.5625 z m 101.937502,10.625 -78.968752,36.90625 0,16.125 79.125002,-36.84375 -0.15625,-16.1875 z" style="fill:#000000;fill-opacity:1;stroke:none" /></svg>
