<?xml version="1.0" encoding="UTF-8" standalone="no"?>
<!-- Created with Inkscape (http://www.inkscape.org/) -->

<svg
   xmlns:dc="http://purl.org/dc/elements/1.1/"
   xmlns:cc="http://creativecommons.org/ns#"
   xmlns:rdf="http://www.w3.org/1999/02/22-rdf-syntax-ns#"
   xmlns:svg="http://www.w3.org/2000/svg"
   xmlns="http://www.w3.org/2000/svg"
   xmlns:sodipodi="http://sodipodi.sourceforge.net/DTD/sodipodi-0.dtd"
   xmlns:inkscape="http://www.inkscape.org/namespaces/inkscape"
   width="210mm"
   height="297mm"
   id="svg2"
   version="1.1"
   inkscape:version="0.48.4 r9939"
   sodipodi:docname="source.svg">
  <defs
     id="defs4" />
  <sodipodi:namedview
     id="base"
     pagecolor="#ffffff"
     bordercolor="#666666"
     borderopacity="1.0"
     inkscape:pageopacity="0.0"
     inkscape:pageshadow="2"
     inkscape:zoom="1.979899"
     inkscape:cx="283.91718"
     inkscape:cy="462.30362"
     inkscape:document-units="px"
     inkscape:current-layer="layer1"
     showgrid="false"
     inkscape:window-width="1680"
     inkscape:window-height="964"
     inkscape:window-x="0"
     inkscape:window-y="27"
     inkscape:window-maximized="1" />
  <metadata
     id="metadata7">
    <rdf:RDF>
      <cc:Work
         rdf:about="">
        <dc:format>image/svg+xml</dc:format>
        <dc:type
           rdf:resource="http://purl.org/dc/dcmitype/StillImage" />
        <dc:title></dc:title>
      </cc:Work>
    </rdf:RDF>
  </metadata>
  <g
     inkscape:label="Ebene 1"
     inkscape:groupmode="layer"
     id="layer1">
    <g
       id="bg"
       style="fill:#000000"
       transform="matrix(1.0892602,0,0,1.0892602,-50.71481,177.00887)" />
    <path
       style="fill:#000000;fill-opacity:1;stroke:none"
       d="M 270.46875 477.875 C 269.06859 477.9548 267.45862 478.64649 266.46875 480.03125 L 250.40625 498.5 L 250.3125 506.0625 L 241.1875 515.25 C 238.83554 517.73881 242.66629 521.97765 245.25 519.5 L 255.6875 508.84375 L 255.90625 502.40625 L 266.25 511.34375 L 260.5625 519.3125 C 259.39071 521.53741 259.6113 523.53301 261.09375 525 L 273.625 537.21875 C 277.20073 540.18907 280.51359 536.01929 277.53125 533.15625 L 265.65625 521.90625 L 274.4375 509.34375 L 281.90625 517.03125 C 284.17018 519.7291 287.11296 518.54545 288.09375 516.8125 L 295.25 503.46875 C 298.02209 499.50036 293.48679 496.32378 290.5 500.21875 L 284.375 510.6875 L 264.6875 491.21875 L 271.125 484.1875 L 280.03125 490.71875 C 283.29054 492.9849 285.79752 488.42535 283.65625 486.5625 L 272.5625 478.375 C 272.05921 478.00168 271.30883 477.82712 270.46875 477.875 z M 248.4375 478.28125 C 244.26343 478.28125 240.87499 481.66968 240.875 485.84375 C 240.875 490.01781 244.26343 493.40626 248.4375 493.40625 C 252.61156 493.40625 256.00001 490.0178 256 485.84375 C 256 481.66968 252.61156 478.28125 248.4375 478.28125 z M 306.09375 506.15625 L 306.09375 508.875 C 315.1105 510.17573 321.46875 519.80257 321.46875 526.84375 C 321.46875 527.69281 321.43705 528.49808 321.3125 529.3125 L 324.71875 529.3125 C 324.82156 528.49686 324.875 527.6872 324.875 526.84375 C 324.875 517.91676 316.86331 507.15098 306.09375 506.15625 z M 299.0625 514.46875 L 299.0625 518.0625 C 305.29592 520.38866 309.78125 526.39632 309.78125 533.4375 C 309.78125 534.28656 309.71831 535.09183 309.59375 535.90625 L 313 535.90625 C 313.10281 535.09061 313.15625 534.28095 313.15625 533.4375 C 313.15625 524.51052 307.19522 516.92838 299.0625 514.46875 z M 244.8125 530.40625 L 244.8125 546.28125 L 237.5 546.28125 L 251.5 561.09375 L 265.25 546.34375 L 257.96875 546.3125 L 257.96875 530.40625 L 244.8125 530.40625 z M 312.6875 542.9375 L 312.6875 698.125 L 317.96875 698.125 L 317.96875 548.21875 L 361.625 548.21875 L 361.625 542.9375 L 312.6875 542.9375 z M 212.59375 561.65625 L 208.25 565.1875 L 215.71875 575.125 L 206.375 584.03125 L 208.46875 586.09375 L 219.625 575.75 L 212.40625 565.78125 L 212.59375 561.65625 z M 197.90625 584.34375 C 197.32415 584.35965 196.7254 584.46824 196.0625 584.625 C 190.2192 585.81823 186.8275 590.22839 186.0625 598.0625 C 187.1069 603.62864 188.94265 608.78129 196.34375 610.6875 C 202.08115 611.36691 207.19005 611.79337 210.59375 609.75 C 217.07425 605.92525 217.80035 599.82113 215.53125 593.46875 C 213.35185 589.09087 209.4975 587.50851 205.5625 587.8125 C 203.753 588.93208 202.3408 590.56008 201.3125 592.65625 C 201.8527 590.81287 201.7163 589.33519 203.5 586.78125 C 202.2095 585.40411 200.42905 584.27509 197.90625 584.34375 z M 288 586.5 C 268.97154 589.66618 241.87195 593.25992 217.59375 596.6875 L 219.75 599 L 225.78125 604.15625 C 226.64285 604.84137 226.55475 605.21135 225.90625 605.75 L 217.5 613.875 L 229.875 607.46875 C 232.6404 605.61367 232.7583 603.55822 230.25 601.3125 L 224.78125 598.34375 C 242.01195 596.1946 259.8192 594.05465 273.8125 591.90625 L 209.9375 622.09375 C 188.3628 622.78517 170.1539 620.93974 166 608.46875 C 167.5479 607.62909 170.30625 606.8087 173.96875 605.96875 L 173.71875 603.65625 C 166.92605 605.06006 162.6827 606.35131 162.25 607.4375 L 162.65625 682.65625 C 171.67395 696.37975 189.27265 699.62242 210.40625 697.375 L 210.40625 697.3125 L 289.65625 660.0625 L 289.53125 644.71875 L 210.3125 681.78125 L 210.3125 694.6875 C 191.7891 698.05053 173.33415 693.32057 165.96875 682.65625 L 165.5625 614.0625 C 175.1533 625.74472 192.6485 626.07144 210.9375 625.25 L 288.09375 588.6875 L 288 586.5 z M 184.09375 589.4375 L 175.53125 596.34375 C 173.49815 598.43543 173.92245 600.69546 175.46875 603.0625 L 182.40625 610.09375 L 178.4375 601.59375 C 177.6956 600.64748 177.58605 599.76951 178.15625 598.75 L 184.09375 589.4375 z M 289.0625 593.96875 L 210.3125 631.0625 L 210.3125 646.96875 L 289.21875 610.21875 L 289.0625 593.96875 z M 187.34375 608.75 L 192.96875 619.3125 C 193.82565 620.91975 196.1134 620.7096 197.5 619.6875 L 204.625 613.46875 L 196.84375 616.59375 C 195.82145 617.04814 195.5322 616.59484 195.0625 616.3125 L 187.34375 608.75 z M 289.28125 619.375 L 210.3125 656.28125 L 210.3125 672.40625 L 289.4375 635.5625 L 289.28125 619.375 z "
       id="rect2656" />
  </g>
</svg>
